Coordinates
version=1
nRows=10
nColumns=22
inDegrees=yes

Units are S.I. units (second, meters, Newtons, ...)
If the header above contains a line with 'inDegrees', this indicates whether rotational values are in degrees (yes) or radians (no).

endheader
time	pelvis_tilt	pelvis_list	pelvis_rotation	pelvis_tx	pelvis_ty	pelvis_tz	hip_flexion_r	hip_adduction_r	hip_rotation_r	knee_angle_r	ankle_angle_r	subtalar_angle_r	hip_flexion_l	hip_adduction_l	hip_rotation_l	knee_angle_l	ankle_angle_l	subtalar_angle_l	lumbar_extension	lumbar_bending	lumbar_rotation
      2.06000000	      2.97304581	     -0.49916730	    138.81156078	     -0.67325709	      0.97958057	      0.63318859	     -5.72925180	      9.07880698	      4.80077795	    -20.36814949	     18.83685838	     -6.08647112	     25.76503846	     -4.12347251	      5.48460371	     -7.30832065	      7.28008533	     11.60232759	     -4.71672574	     -2.93616013	      4.47216026
      2.07000000	      2.86508828	     -0.66781639	    138.19871007	     -0.68155852	      0.97854222	      0.62640020	     -6.21467624	      8.71821581	      5.23044819	    -20.73054604	     18.85751641	     -5.44254548	     25.75049196	     -3.91627623	      5.80364560	     -8.16640954	      6.80440035	     11.20614685	     -4.54744759	     -3.17736642	      4.42733746
      2.08000000	      2.72541158	     -0.88092692	    137.58841100	     -0.68993995	      0.97772739	      0.61955370	     -6.64896900	      8.28589266	      5.64213058	    -21.15822245	     18.76159091	     -4.71466548	     25.74252510	     -3.65407967	      6.02732342	     -9.15060180	      6.12193345	     10.77074346	     -4.36510589	     -3.47864297	      4.37090990
      2.09000000	      2.54401025	     -1.15411737	    136.98473165	     -0.69839667	      0.97714452	      0.61263421	     -7.01586358	      7.76647660	      6.02105045	    -21.66734854	     18.56389453	     -3.90618298	     25.75445816	     -3.32096604	      6.14187267	    -10.23953592	      5.29557360	     10.33280260	     -4.16057602	     -3.86637998	      4.30355532
      2.10000000	      2.33005717	     -1.46262410	    136.39779863	     -0.70690225	      0.97681604	      0.60567153	     -7.30262179	      7.18902765	      6.33056974	    -22.28707112	     18.23162306	     -2.96429755	     25.78913912	     -2.94005153	      6.16429602	    -11.41407802	      4.40489096	      9.89687288	     -3.95269171	     -4.31065983	      4.21562452
      2.11000000	      2.08894942	     -1.79560828	    135.82237282	     -0.71542691	      0.97674477	      0.59865827	     -7.49473084	      6.56990389	      6.56000219	    -23.04143110	     17.75402580	     -1.90028739	     25.84213342	     -2.53077574	      6.09191146	    -12.65249564	      3.55684043	      9.50674953	     -3.74570779	     -4.79907584	      4.11612930
      2.12000000	      1.82048465	     -2.14952452	    135.24939433	     -0.72395269	      0.97691952	      0.59158617	     -7.57678964	      5.91044297	      6.68694410	    -23.95780021	     17.13695744	     -0.71295685	     25.90194078	     -2.10679030	      5.89087866	    -13.92766744	      2.81545822	      9.18788150	     -3.54051628	     -5.32773625	      4.02341111
      2.13000000	      1.53555073	     -2.49193396	    134.67433845	     -0.73245528	      0.97734389	      0.58445406	     -7.55380502	      5.24136454	      6.69260820	    -25.04684939	     16.34420531	      0.59522128	     25.93340202	     -1.70445127	      5.58908231	    -15.19948838	      2.25536236	      8.95146903	     -3.35466195	     -5.86012556	      3.93811336
      2.14000000	      1.23681599	     -2.81176985	    134.09381099	     -0.74092323	      0.97800516	      0.57727632	     -7.42244472	      4.56892528	      6.56753971	    -26.31666963	     15.37709303	      2.01431097	     25.90250047	     -1.33686034	      5.18132650	    -16.41509539	      1.90457918	      8.79658858	     -3.19416440	     -6.38258772	      3.85275514
      2.15000000	      0.92407252	     -3.09994399	    133.49200721	     -0.74932738	      0.97888244	      0.57009961	     -7.16891940	      3.88155671	      6.25705533	    -27.79088384	     14.23809506	      3.46801743	     25.78198638	     -1.01205711	      4.66606064	    -17.53298142	      1.75932537	      8.70470936	     -3.07088155	     -6.88140016	      3.80457337
